# xmcd
#
# Track frame offsets: 
#        150
#        20651
#        42728
#        59116
#        79802
#        96344
#        113920
#        132733
#        148929
#
# Disc length: 2228 seconds
#
# Revision: 0
# Processed by: cddbd v1.5.2PL0 Copyright (c) Steve Scherf et al.
# Submitted via: ExactAudioCopy v0.99pb4
#
DISCID=9208b209
DTITLE=Passage - Passage
DYEAR=1985
DGENRE=Soul
TTITLE0=Have You Heard The Word
TTITLE1=You Can't Be Livin'
TTITLE2=Faith Walking People
TTITLE3=I See The Light
TTITLE4=The Great Flood
TTITLE5=Open Up Your Heart
TTITLE6=Power
TTITLE7=Love Eyes
TTITLE8=The Son Will Come Again
EXTD=
EXTT0=
EXTT1=
EXTT2=
EXTT3=
EXTT4=
EXTT5=
EXTT6=
EXTT7=
EXTT8=
PLAYORDER=
